<svg xmlns="http://www.w3.org/2000/svg" width="633" height="552" viewBox="0 0 633 552">
    <defs>
        <clipPath id="clip-path">
            <path id="Rectangle_6" fill="#fff" stroke="#707070" d="M0 0H633V552H0z" data-name="Rectangle 6" transform="translate(1125 1169)"/>
        </clipPath>
        <style>
            .cls-10,.cls-8{fill:#fff}.cls-10,.cls-12,.cls-15,.cls-3,.cls-4,.cls-5,.cls-6,.cls-7,.cls-8{stroke:#707070}.cls-3{fill:#2f2e41}.cls-12,.cls-15,.cls-3,.cls-4,.cls-5,.cls-6,.cls-7,.cls-8{stroke-width:.713px}.cls-4{fill:#ffb9b9}.cls-5{fill:#e6e6e6}.cls-6{fill:#6c63ff}.cls-7{fill:#3f3d56}.cls-10{stroke-width:.713px}.cls-12{fill:#9f616a}.cls-15{opacity:.2}
        </style>
    </defs>
    <g id="Mask_Group_1" clip-path="url(#clip-path)" data-name="Mask Group 1" transform="translate(-1125 -1169)">
        <g id="undraw_medical_care_movn" transform="translate(1125 1224.695)">
            <path id="Path_1" d="M640.1 168.223l-48.831.476c-2.3-11.3-10.007-40.947-3.062-49.034a11.886 11.886 0 0 1 12.52-10.636c7.568-11.847 20.175-10.068 28.7-2.669 8.575 2.959 11.808 8.215 10.677 15.349 6.35 5.559 7.522 12.322 4.671 20.02z" class="cls-3" data-name="Path 1" transform="translate(-111.203 -100.472)"/>
            <path id="Path_2" d="M635.4 198.3l-35.23-4.878-7.046-10.3c9.706-6.438 13.141-15.431 8.672-27.642l24.39-.542c-1.143 10.874 2.453 19.294 12.466 24.39z" class="cls-4" data-name="Path 2" transform="translate(-111.203 -100.472)"/>
            <path id="Path_3" d="M591.837 516.07l-1.347 18.416a5.863 5.863 0 0 0 6.2 6.28l9.459-.573a2.99 2.99 0 0 0 2.72-3.71l-5.251-21z" class="cls-5" data-name="Path 3" transform="translate(-111.203 -100.472)"/>
            <path id="Path_4" d="M622.461 515.482l-5.251 21a2.99 2.99 0 0 0 2.72 3.71l9.459.573a5.862 5.862 0 0 0 6.2-6.28l-1.347-18.416z" class="cls-5" data-name="Path 4" transform="translate(-111.203 -100.472)"/>
            <path id="Path_5" d="M523.652 418.155l-12.766-1.281-12.708-135.846-4.8 135.408-12.542-.449L459.7 228.454h80.758z" class="cls-6" data-name="Path 5"/>
            <circle id="Ellipse_1" cx="24.39" cy="24.39" r="24.39" class="cls-4" data-name="Ellipse 1" transform="translate(479.749 14.905)"/>
            <path id="Path_6" d="M663.581 333.262l-98.645 1.084c14.639-55.73 23.4-107.5 8.13-143.089l24.39-11.924c11.76 12.266 24.858 11 39.024-1.084l23.306 5.962c-3.986 46.671-2.202 96.655 3.795 149.051z" class="cls-6" data-name="Path 6" transform="translate(-111.203 -100.472)"/>
            <path id="Path_7" d="M537.836 275.81l61.246 24.39 13.693 4.027a4.737 4.737 0 0 0 5.932-3.4 4.737 4.737 0 0 0-2.7-5.489l-14.218-4.357-42.818-24.932 8.943-23.577-18.7-10.027z" class="cls-4" data-name="Path 7" transform="translate(-111.203 -100.472)"/>
            <path id="Path_8" d="M538.378 231.366c11.653 4.546 20.921 12.3 28.184 22.764l22.764-33.062-16.26-29.81z" class="cls-6" data-name="Path 8" transform="translate(-111.203 -100.472)"/>
            <path id="Path_9" d="M642.831 135.815c-9.9-2.551-19.632-2.9-29.093.334-6.027 2.919-13.264 2.65-21.313.245V112.06l43.454 1.159z" class="cls-3" data-name="Path 9" transform="translate(-111.203 -100.472)"/>
            <path id="Path_10" d="M598.879 247.393a7.232 7.232 0 0 0-7.224 7.224l2.851 59.688a7.232 7.232 0 0 0 7.224 7.224h32.6a7.232 7.232 0 0 0 7.224-7.224l2.851-59.688a7.232 7.232 0 0 0-7.224-7.224z" class="cls-7" data-name="Path 10" transform="translate(-111.203 -100.472)"/>
            <path id="Path_11" d="M691.374 271.3l-53.384 21.258-4.028 1.6c-.128.05-.257.093-.392.135l-13.494 3.97c-1.725.506-4.113-1.818-5.51-3.422a4.338 4.338 0 0 1-.114-5.653 4.805 4.805 0 0 1 .613-.592 3.984 3.984 0 0 1 1.782-.784l13.48-2.652a4.516 4.516 0 0 0 1.376-.513l6.287-3.664 32.641-19a4.433 4.433 0 0 0 1.918-5.4l-6.23-16.431a4.428 4.428 0 0 1 2.046-5.475l10.322-5.532a4.424 4.424 0 0 1 6.373 2.78l8.96 34.131a4.433 4.433 0 0 1-2.645 5.246z" class="cls-4" data-name="Path 11" transform="translate(-111.203 -100.472)"/>
            <path id="Path_12" d="M694.475 225.4c-11.653 4.546-20.921 12.3-28.184 22.764l-22.764-33.062 16.26-30.894z" class="cls-6" data-name="Path 12" transform="translate(-111.203 -100.472)"/>
            <path id="Path_13" d="M631.574 161.476c-10.67 4.438-21.858 4.258-33.5 0 3.389-5.784-1.677-10.314-4.277-16.153l43.483-1.292c-3.328 5.069-8.235 11.069-5.706 17.445z" class="cls-8" data-name="Path 13" transform="translate(-111.203 -100.472)"/>
            <path id="Path_14" d="M525.614 44.524l-.5-.5.713-.713 4.258-4.97.542.463-4.277 4.99z" class="cls-8" data-name="Path 14"/>
            <path id="Rectangle_7" fill="#fff" stroke="#707070" stroke-width="0.713px" d="M0 0H0.713V5.567H0z" data-name="Rectangle 7" transform="rotate(-50.2 284.548 -490.62)"/>
            <path id="Rectangle_8" d="M0 0H13.941V0.713H0z" class="cls-10" data-name="Rectangle 8" transform="rotate(-57.53 314.645 -442.612)"/>
            <path id="Rectangle_9" fill="#fff" stroke="#707070" stroke-width="0.713px" d="M0 0H0.713V13.941H0z" data-name="Rectangle 9" transform="rotate(-32.471 324.192 -799.28)"/>
            <path id="Path_15" d="M639.416 279.98v12.914l-4.5 1.79c-.143.056-.286.1-.438.151l-15.063 4.432c-1.926.565-4.591-2.029-6.151-3.819a4.842 4.842 0 0 1-.127-6.31 5.369 5.369 0 0 1 .684-.66 4.447 4.447 0 0 1 1.989-.875l15.047-2.96a5.041 5.041 0 0 0 1.536-.573z" class="cls-8" data-name="Path 15" transform="translate(-111.203 -100.472)"/>
            <path id="Path_16" d="M645.931 233.917h-2.576c0-36.434-7.5-61.824-14.812-61.824l-.644-2.576c6.556 0 10.736 10.567 13.087 19.432 3.189 12.019 4.945 27.988 4.945 44.968z" class="cls-7" data-name="Path 16" transform="translate(-111.203 -100.472)"/>
            <path id="Path_17" d="M586.683 224.9h-2.576c0-33.367 7.553-54.1 18.676-54.1l-.644 2.576c-7.694.005-15.456 15.936-15.456 51.524z" class="cls-7" data-name="Path 17" transform="translate(-111.203 -100.472)"/>
            <circle id="Ellipse_2" cx="6.44" cy="6.44" r="6.44" class="cls-7" data-name="Ellipse 2" transform="translate(527 127.648)"/>
            <path id="Path_18" d="M576.379 240.357H573.8c0-9.233 5.2-16.744 11.592-16.744v2.576c-4.968 0-9.013 6.356-9.013 14.168z" class="cls-7" data-name="Path 18" transform="translate(-111.203 -100.472)"/>
            <path id="Path_19" d="M596.987 240.357h-2.576c0-7.812-4.044-14.168-9.016-14.168v-2.576c6.392 0 11.592 7.511 11.592 16.744z" class="cls-7" data-name="Path 19" transform="translate(-111.203 -100.472)"/>
            <circle id="Ellipse_3" cx="2.576" cy="2.576" r="2.576" class="cls-7" data-name="Ellipse 3" transform="translate(481.921 137.953)"/>
            <circle id="Ellipse_4" cx="2.576" cy="2.576" r="2.576" class="cls-7" data-name="Ellipse 4" transform="translate(461.313 137.953)"/>
            <path id="Path_20" d="M264.656 154.432l-45.241 7.662a4.579 4.579 0 0 1-5.182-3.288c-3.269-11.8-10.1-27.187-3.468-34.912a12.692 12.692 0 0 1 13.37-11.357c8.082-12.651 21.544-10.752 30.642-2.85 9.157 3.16 12.609 8.773 11.4 16.39 3.956 3.463 6.03 7.363 6.467 11.643a16.815 16.815 0 0 1-4.6 13.081z" class="cls-3" data-name="Path 20" transform="translate(-111.203 -100.472)"/>
            <path id="Path_21" d="M257.622 190.049l-35.072-2.063c3.437-7.889 4.81-15.486 3.438-22.694h26.132c-.059 5.535 2.695 15.108 5.502 24.757z" class="cls-12" data-name="Path 21" transform="translate(-111.203 -100.472)"/>
            <path id="Path_22" d="M215.405 514.124l-1.439 19.665a6.26 6.26 0 0 0 6.622 6.706l10.1-.612a3.193 3.193 0 0 0 2.9-3.962l-5.607-22.427z" class="cls-5" data-name="Path 22" transform="translate(-111.203 -100.472)"/>
            <path id="Path_23" d="M248.107 513.495l-5.607 22.427a3.193 3.193 0 0 0 2.9 3.962l10.1.612a6.26 6.26 0 0 0 6.622-6.706l-1.439-19.665z" class="cls-5" data-name="Path 23" transform="translate(-111.203 -100.472)"/>
            <path id="Path_24" d="M150.138 416.382l-13.631-1.368-13.571-145.062-5.129 144.594-13.392-.48-22.572-200.255h86.237z" class="cls-6" data-name="Path 24"/>
            <circle id="Ellipse_5" cx="26.045" cy="26.045" r="26.045" class="cls-12" data-name="Ellipse 5" transform="translate(102.496 21.079)"/>
            <path id="Path_25" d="M269.1 135.154c-10.571-1.841-20.964-2.094-31.067.241-6.436 2.107-14.164 1.913-22.759.177v-17.563l46.4.836z" class="cls-3" data-name="Path 25" transform="translate(-111.203 -100.472)"/>
            <path id="Path_26" d="M257.077 168.493c-11.394 4.739-23.341 4.547-35.776 0 3.618-6.176-1.79-11.014-4.567-17.249l46.433-1.38c-3.551 5.418-8.791 11.817-6.09 18.629z" class="cls-8" data-name="Path 26" transform="translate(-111.203 -100.472)"/>
            <path id="Rectangle_10" fill="#fff" stroke="#707070" stroke-width="0.713px" d="M0 0H0.713V5.945H0z" data-name="Rectangle 10" transform="rotate(-50.2 101.956 -84.9)"/>
            <path id="Rectangle_11" d="M0 0H14.887V0.713H0z" class="cls-10" data-name="Rectangle 11" transform="rotate(-57.53 133.806 -98.118)"/>
            <path id="Rectangle_12" fill="#fff" stroke="#707070" stroke-width="0.713px" d="M0 0H0.713V14.887H0z" data-name="Rectangle 12" transform="rotate(-32.47 146.184 -148.433)"/>
            <path id="Path_27" d="M190.229 266.383L170.286 254l17.008-49.812a23.5 23.5 0 0 1 10.272-12.2l5.729-3.317.5 50.251z" class="cls-6" data-name="Path 27" transform="translate(-111.203 -100.472)"/>
            <path id="Path_28" d="M276.431 290.575L273.48 265.3c-.158-13.339 2.112-26.236 7.523-38.119l2.751-37.135-30.254-12.375c-.093.617-.172 1.233-.26 1.849l-14.181 7.091-13.83-3.143.077-4.421-27.507 12.378c9.1 42.291 4.135 86.209-11.508 138.083l36.238 9.909.3-17.4 32.3-2.307c.333 5.645.6 11.191.755 16.613 18.224 6.709 18.85 6.6 35.454-3.008a194.841 194.841 0 0 1-14.907-42.74z" class="cls-6" data-name="Path 28" transform="translate(-111.203 -100.472)"/>
            <path id="Path_29" d="M211.749 159.721l-18.567-6.189-29.7-34.575 9.069-29.38 41.261 57.766z" class="cls-6" data-name="Path 29"/>
            <path id="Path_30" d="M264.762 286.96a5.165 5.165 0 0 0 6.17 3.891l15.761-3.569-2.278-10.06-15.762 3.569a5.159 5.159 0 0 0-3.891 6.169z" class="cls-5" data-name="Path 30" transform="translate(-111.203 -100.472)"/>
            <path id="Path_31" d="M278.94 275.322l8.94 16.5c15.037-4.194 28.068-17.415 40.573-33.009l-3.438-11-21.318 5.5z" class="cls-6" data-name="Path 31" transform="translate(-111.203 -100.472)"/>
            <path id="Path_32" d="M51.175 123.079l17.162 3.064 39.228 55.777-20.84-4.9z" class="cls-5" data-name="Path 32"/>
            <path id="Path_33" d="M159.334 222.869a1.46 1.46 0 0 0-1.2 2.262l36.666 55.634a1.455 1.455 0 0 0 .883.617l17.06 4.014a1.457 1.457 0 0 0 1.526-2.257L174.014 225.9a1.449 1.449 0 0 0-.936-.6l-13.469-2.406a1.582 1.582 0 0 0-.275-.025z" class="cls-7" data-name="Path 33" transform="translate(-111.203 -100.472)"/>
            <path id="Path_34" d="M182.207 262.647l1.019 10.265 16.081-1.6a5.158 5.158 0 1 0-1.019-10.265z" class="cls-5" data-name="Path 34" transform="translate(-111.203 -100.472)"/>
            <path id="Path_35" d="M168.223 261.457a13.265 13.265 0 0 0 13.25 13.177h2.644l1.925-16.043-15.942-5.738z" class="cls-6" data-name="Path 35" transform="translate(-111.203 -100.472)"/>
            <path id="Path_36" d="M150.693 51.167l-.5-.5.761-.761 4.549-5.309.541.463-4.567 5.328z" class="cls-8" data-name="Path 36"/>
            <path id="Rectangle_13" d="M0 0H633V1.426H0z" class="cls-7" data-name="Rectangle 13" transform="translate(0 439.184)"/>
            <path id="Path_37" d="M352.855 538.943h149.7V357.372c0-9.615-9.47-17.436-21.11-17.436h-107.48c-11.64 0-21.11 7.822-21.11 17.436z" class="cls-5" data-name="Path 37" transform="translate(-111.203 -100.472)"/>
            <path id="Path_38" d="M364.26 531.435h126.885v-153.9c0-8.149-8.027-14.779-17.893-14.779h-91.1c-9.867 0-17.894 6.63-17.894 14.779z" class="cls-8" data-name="Path 38" transform="translate(-111.203 -100.472)"/>
            <path id="Path_39" d="M351.724 325.8c-3.7 0-6.71 2.487-6.71 5.543v16c0 3.056 3.01 5.543 6.71 5.543h151.958c3.7 0 6.71-2.487 6.71-5.543v-16c0-3.056-3.01-5.543-6.71-5.543z" class="cls-7" data-name="Path 39" transform="translate(-111.203 -100.472)"/>
            <path id="Path_40" d="M382.923 511.7a6.575 6.575 0 0 0-6.556 6.556 6.575 6.575 0 0 0 6.556 6.556h12.271V511.7z" class="cls-7" data-name="Path 40" transform="translate(-111.203 -100.472)"/>
            <path id="Path_41" d="M406.456 511.7h-11.934v13.111h11.935a6.575 6.575 0 0 0 6.556-6.556 6.575 6.575 0 0 0-6.556-6.556z" class="cls-6" data-name="Path 41" transform="translate(-111.203 -100.472)"/>
            <path id="Path_42" d="M410.734 513.306a6.518 6.518 0 0 1 1.605 4.278 6.575 6.575 0 0 1-6.556 6.556h-11.261v.672h11.935a6.575 6.575 0 0 0 6.556-6.556 6.542 6.542 0 0 0-2.278-4.95z" class="cls-15" data-name="Path 42" transform="translate(-111.203 -100.472)"/>
            <path id="Path_43" d="M438.3 412.954a6.575 6.575 0 0 0-9.267-.274 6.575 6.575 0 0 0-.274 9.267l8.417 8.929 9.541-8.994z" class="cls-7" data-name="Path 43" transform="translate(-111.203 -100.472)"/>
            <path id="Path_44" d="M454.439 430.078l-8.186-8.685-9.541 8.994 8.186 8.685a6.575 6.575 0 0 0 9.267.274 6.575 6.575 0 0 0 .274-9.268z" class="cls-6" data-name="Path 44" transform="translate(-111.203 -100.472)"/>
            <path id="Path_45" d="M456.2 434.292a6.518 6.518 0 0 1-2.012 4.1 6.575 6.575 0 0 1-9.267-.274l-7.726-8.2-.489.461 8.186 8.685a6.575 6.575 0 0 0 9.267.274 6.541 6.541 0 0 0 2.041-5.046z" class="cls-15" data-name="Path 45" transform="translate(-111.203 -100.472)"/>
            <path id="Path_46" d="M403.367 433.626a6.575 6.575 0 0 0-9.267-.274 6.575 6.575 0 0 0-.274 9.267l8.417 8.929 9.541-8.994z" class="cls-7" data-name="Path 46" transform="translate(-111.203 -100.472)"/>
            <path id="Path_47" d="M419.51 450.75l-8.186-8.685-9.541 8.994 8.186 8.685a6.575 6.575 0 0 0 9.267.274 6.575 6.575 0 0 0 .274-9.268z" class="cls-6" data-name="Path 47" transform="translate(-111.203 -100.472)"/>
            <path id="Path_48" d="M421.276 454.964a6.518 6.518 0 0 1-2.012 4.1 6.575 6.575 0 0 1-9.267-.274l-7.726-8.2-.489.461 8.186 8.685a6.575 6.575 0 0 0 9.267.274 6.541 6.541 0 0 0 2.04-5.053z" class="cls-15" data-name="Path 48" transform="translate(-111.203 -100.472)"/>
            <path id="Path_49" d="M438.3 452.873a6.575 6.575 0 0 0-9.267-.274 6.575 6.575 0 0 0-.274 9.267l8.417 8.929 9.541-8.994z" class="cls-7" data-name="Path 49" transform="translate(-111.203 -100.472)"/>
            <path id="Path_50" d="M454.439 470l-8.186-8.685-9.541 8.994 8.186 8.685a6.575 6.575 0 0 0 9.267.274 6.575 6.575 0 0 0 .274-9.268z" class="cls-6" data-name="Path 50" transform="translate(-111.203 -100.472)"/>
            <path id="Path_51" d="M456.2 474.211a6.518 6.518 0 0 1-2.012 4.1 6.575 6.575 0 0 1-9.267-.274l-7.726-8.2-.489.461 8.186 8.685a6.575 6.575 0 0 0 9.267.274 6.542 6.542 0 0 0 2.04-5.053z" class="cls-15" data-name="Path 51" transform="translate(-111.203 -100.472)"/>
            <path id="Path_52" d="M459.605 493.838a6.575 6.575 0 0 0 .161-9.27 6.575 6.575 0 0 0-9.27-.161l-8.826 8.525 9.109 9.431z" class="cls-7" data-name="Path 52" transform="translate(-111.203 -100.472)"/>
            <path id="Path_53" d="M442.678 510.187l8.584-8.291-9.109-9.43-8.584 8.291a6.575 6.575 0 0 0-.161 9.27 6.575 6.575 0 0 0 9.27.161z" class="cls-6" data-name="Path 53" transform="translate(-111.203 -100.472)"/>
            <path id="Path_54" d="M438.486 512a6.518 6.518 0 0 1-4.127-1.962 6.575 6.575 0 0 1 .161-9.27l8.1-7.824-.467-.484-8.585 8.291a6.575 6.575 0 0 0-.161 9.27 6.542 6.542 0 0 0 5.079 1.979z" class="cls-15" data-name="Path 54" transform="translate(-111.203 -100.472)"/>
            <path id="Path_55" d="M412.558 473.165a6.575 6.575 0 0 0 .161-9.27 6.575 6.575 0 0 0-9.27-.161l-8.826 8.525 9.109 9.431z" class="cls-7" data-name="Path 55" transform="translate(-111.203 -100.472)"/>
            <path id="Path_56" d="M395.631 489.514l8.584-8.291-9.109-9.43-8.584 8.291a6.575 6.575 0 0 0-.161 9.27 6.575 6.575 0 0 0 9.27.161z" class="cls-6" data-name="Path 56" transform="translate(-111.203 -100.472)"/>
            <path id="Path_57" d="M391.439 491.331a6.518 6.518 0 0 1-4.127-1.962 6.575 6.575 0 0 1 .161-9.27l8.1-7.824-.467-.484-8.585 8.291a6.575 6.575 0 0 0-.161 9.27 6.541 6.541 0 0 0 5.077 1.978z" class="cls-15" data-name="Path 57" transform="translate(-111.203 -100.472)"/>
            <path id="Path_58" d="M479.565 448.216a6.575 6.575 0 0 0 .161-9.27 6.575 6.575 0 0 0-9.27-.161l-8.826 8.525 9.109 9.431z" class="cls-7" data-name="Path 58" transform="translate(-111.203 -100.472)"/>
            <path id="Path_59" d="M462.637 464.565l8.584-8.291-9.109-9.43-8.584 8.291a6.575 6.575 0 0 0-.161 9.27 6.575 6.575 0 0 0 9.27.161z" class="cls-6" data-name="Path 59" transform="translate(-111.203 -100.472)"/>
            <path id="Path_60" d="M458.445 466.382a6.518 6.518 0 0 1-4.127-1.962 6.575 6.575 0 0 1 .161-9.27l8.1-7.824-.467-.484-8.585 8.291a6.575 6.575 0 0 0-.161 9.27 6.542 6.542 0 0 0 5.077 1.978z" class="cls-15" data-name="Path 60" transform="translate(-111.203 -100.472)"/>
            <path id="Path_61" d="M464.671 499.92a6.575 6.575 0 0 0-9.267-.274 6.575 6.575 0 0 0-.274 9.267l8.417 8.929 9.541-8.994z" class="cls-7" data-name="Path 61" transform="translate(-111.203 -100.472)"/>
            <path id="Path_62" d="M480.814 517.044l-8.186-8.685-9.541 8.994 8.186 8.685a6.575 6.575 0 0 0 9.267.274 6.575 6.575 0 0 0 .274-9.268z" class="cls-6" data-name="Path 62" transform="translate(-111.203 -100.472)"/>
            <path id="Path_63" d="M482.58 521.258a6.518 6.518 0 0 1-2.012 4.1 6.575 6.575 0 0 1-9.267-.274l-7.726-8.2-.489.461 8.186 8.685a6.575 6.575 0 0 0 9.267.274 6.542 6.542 0 0 0 2.041-5.046z" class="cls-15" data-name="Path 63" transform="translate(-111.203 -100.472)"/>
            <path id="Path_64" d="M418.337 499.207a6.575 6.575 0 0 0-9.267-.274 6.575 6.575 0 0 0-.274 9.267l8.417 8.929 9.541-8.994z" class="cls-7" data-name="Path 64" transform="translate(-111.203 -100.472)"/>
            <path id="Path_65" d="M434.48 516.331l-8.186-8.685-9.541 8.994 8.186 8.685a6.575 6.575 0 0 0 9.267.274 6.575 6.575 0 0 0 .274-9.268z" class="cls-6" data-name="Path 65" transform="translate(-111.203 -100.472)"/>
            <path id="Path_66" d="M436.245 520.546a6.518 6.518 0 0 1-2.012 4.1 6.575 6.575 0 0 1-9.267-.274l-7.726-8.2-.489.461 8.186 8.685a6.575 6.575 0 0 0 9.267.274 6.541 6.541 0 0 0 2.041-5.046z" class="cls-15" data-name="Path 66" transform="translate(-111.203 -100.472)"/>
            <path id="Path_67" d="M431.38 475.688a9.455 9.455 0 1 1-7.564-9.265 9.455 9.455 0 0 1 7.564 9.265z" class="cls-6" data-name="Path 67" transform="translate(-111.203 -100.472)"/>
            <path id="Path_68" d="M423.816 466.423v18.531a9.547 9.547 0 0 1-3.782 0v-18.531a9.55 9.55 0 0 1 3.782 0z" class="cls-15" data-name="Path 68" transform="translate(-111.203 -100.472)"/>
            <path id="Path_69" d="M435.657 437.908a9.455 9.455 0 1 1-11.346-9.265 9.552 9.552 0 0 1 3.782 0 9.455 9.455 0 0 1 7.564 9.265z" class="cls-6" data-name="Path 69" transform="translate(-111.203 -100.472)"/>
            <path id="Path_70" d="M428.093 428.642v18.531a9.548 9.548 0 0 1-3.782 0v-18.531a9.549 9.549 0 0 1 3.782 0z" class="cls-15" data-name="Path 70" transform="translate(-111.203 -100.472)"/>
            <path id="Path_71" d="M435.657 492.083a9.455 9.455 0 1 1-7.564-9.265 9.455 9.455 0 0 1 7.564 9.265z" class="cls-6" data-name="Path 71" transform="translate(-111.203 -100.472)"/>
            <path id="Path_72" d="M428.093 482.818v18.531a9.548 9.548 0 0 1-3.782 0v-18.531a9.55 9.55 0 0 1 3.782 0z" class="cls-15" data-name="Path 72" transform="translate(-111.203 -100.472)"/>
            <path id="Path_73" d="M459.18 518.458a9.455 9.455 0 1 1-11.346-9.265 9.55 9.55 0 0 1 3.782 0 9.455 9.455 0 0 1 7.564 9.265z" class="cls-6" data-name="Path 73" transform="translate(-111.203 -100.472)"/>
            <path id="Path_74" d="M451.616 509.193v18.531a9.547 9.547 0 0 1-3.782 0v-18.531a9.55 9.55 0 0 1 3.782 0z" class="cls-15" data-name="Path 74" transform="translate(-111.203 -100.472)"/>
            <path id="Path_75" d="M479.961 469.931a9.455 9.455 0 1 1-11.92-.984 9.454 9.454 0 0 1 11.92.984z" class="cls-6" data-name="Path 75" transform="translate(-111.203 -100.472)"/>
            <path id="Path_76" d="M468.041 468.947l13.342 12.86a9.547 9.547 0 0 1-2.624 2.723l-13.342-12.86a9.548 9.548 0 0 1 2.624-2.723z" class="cls-15" data-name="Path 76" transform="translate(-111.203 -100.472)"/>
            <path id="Path_77" d="M482.812 490.6a9.454 9.454 0 1 1-11.92-.984 9.454 9.454 0 0 1 11.92.984z" class="cls-6" data-name="Path 77" transform="translate(-111.203 -100.472)"/>
            <path id="Path_78" d="M470.892 489.62l13.342 12.86a9.547 9.547 0 0 1-2.624 2.723l-13.342-12.86a9.55 9.55 0 0 1 2.624-2.723z" class="cls-15" data-name="Path 78" transform="translate(-111.203 -100.472)"/>
            <path id="Path_79" d="M397.984 495.593a9.455 9.455 0 1 1-11.92-.984 9.454 9.454 0 0 1 11.92.984z" class="cls-6" data-name="Path 79" transform="translate(-111.203 -100.472)"/>
            <path id="Path_80" d="M386.064 494.61l13.342 12.86a9.547 9.547 0 0 1-2.624 2.723l-13.342-12.86a9.549 9.549 0 0 1 2.624-2.723z" class="cls-15" data-name="Path 80" transform="translate(-111.203 -100.472)"/>
            <path id="Rectangle_14" d="M0 0H3.564V26.375H0z" class="cls-15" data-name="Rectangle 14" transform="translate(252.701 225.332)"/>
            <path id="Rectangle_15" d="M0 0H3.564V26.375H0z" class="cls-15" data-name="Rectangle 15" transform="translate(273.373 225.332)"/>
            <path id="Rectangle_16" d="M0 0H3.564V26.375H0z" class="cls-15" data-name="Rectangle 16" transform="translate(294.046 225.332)"/>
            <path id="Rectangle_17" d="M0 0H3.564V26.375H0z" class="cls-15" data-name="Rectangle 17" transform="translate(314.718 225.332)"/>
            <path id="Rectangle_18" d="M0 0H3.564V26.375H0z" class="cls-15" data-name="Rectangle 18" transform="translate(335.39 225.332)"/>
            <path id="Rectangle_19" d="M0 0H3.564V26.375H0z" class="cls-15" data-name="Rectangle 19" transform="translate(356.063 225.332)"/>
            <path id="Rectangle_20" d="M0 0H3.564V26.375H0z" class="cls-15" data-name="Rectangle 20" transform="translate(376.735 225.332)"/>
        </g>
    </g>
</svg>
